<svg width="159" height="86" xmlns="http://www.w3.org/2000/svg">
  <defs>
    <path d="M.223.362h77.018V80.27H.223z"/>
  </defs>
  <g fill="none" fill-rule="evenodd">
    <path
      d="M29.686 51.029c-.145.442-.296.9-.421 1.363-.325 1.211-1.029 1.352-1.529 1.352h-.002c-.145 0-.3-.014-.468-.044.13-1.582.945-2.662 2.706-3.564-.089.3-.186.597-.286.893zM22.1 62.732c.247-1.222.678-2.444 1.095-3.627.149-.423.298-.847.44-1.272.076.133.166.255.281.363.285.267.838.578 1.272.487.488-.098.853-.633.978-.968.138-.366.196-.742.26-1.14.007-.033.011-.067.015-.1.421.071.872.13 1.316.13.652 0 1.23-.126 1.757-.384.415.466.924.873 1.588.873.237 0 .48-.056.719-.164 1.11-.503 1.703-1.26 1.814-2.32l.05-.47h-1.253l.12-.186c.396-.624.772-1.212 1.097-1.84.555-1.064.934-1.953 1.196-2.8.22-.717.588-1.005 1.308-1.027.068-.004.136-.004.212-.004h.118l.002.01c.031.237.06.46.03.644-.112.678-.266 1.368-.413 2.035l-.385 1.76c-.179.82-.36 1.642-.52 2.468-.059.313-.019.688.111 1.033.145.383.488 1.32 1.527 1.195.854-.104.98-.848 1.056-1.293l.15-.834c.325-1.78.659-3.618 1.415-5.29.096-.215.203-.425.333-.68.179.299.356.59.53.877.634 1.04 1.232 2.022 1.702 3.041 1.09 2.357 2.15 4.895 3.148 7.545.938 2.485 1.285 5.019 1.033 7.528-.222 2.214-.798 3.873-1.812 5.223-.918 1.22-2.247 2-4.18 2.456-2.774.652-5.671.54-8.613-.331-2.319-.688-4.475-1.917-6.41-3.655-2.786-2.5-3.824-5.622-3.087-9.283zm13.948-17.075l.201-.667a3.5 3.5 0 0 1 .119.614l-.32.053zM22.584 52.5c.38.734.346 1.33-.121 2.115a22.065 22.065 0 0 0-1.147 2.206c.43-1.499.866-2.976 1.268-4.321zm53.93-.777a2.458 2.458 0 0 0-2.676-.556c-.414.166-.858.267-1.328.374l-.335.077c-1.807.429-3.26.462-4.646.122-.95-.236-1.446-.635-1.71-1.378-.223-.633-.793-1.106-1.028-1.28a1.167 1.167 0 0 0-.694-.242c-.593 0-1.045.498-1.052 1.159-.002.179.03.347.058.496.028.146.054.285.038.377l-.011.067c-.067.382-.142.813-.331 1.03a4.296 4.296 0 0 1-2.504 1.428c-1.117.2-1.862.008-2.485-.636-.421-.436-.89-.822-1.342-1.197l-.301-.25a3.638 3.638 0 0 0-2.893-.849c-.497.065-.973.22-1.433.367l-.354.114c-.689.213-1.374.434-2.081.663l-.448.144-.013-.053c-.065-.29-.12-.536-.163-.78-.243-1.403-.998-2.534-2.248-3.363-.73-.484-1.54-.9-2.404-1.236-.653-.253-1.323-.438-2.031-.631-.159-.044-.32-.09-.483-.133.094-.2.186-.388.293-.558a550.15 550.15 0 0 1 3.568-5.625c.372-.578.687-1.188.481-1.75-.218-.594-.938-.888-1.685-1.117l-.318-.098-4.802 7.83c-.742-.78-1.37-1.682-2.04-2.68-1.155-1.719-2.824-3.037-5.255-4.152a1.161 1.161 0 0 0-.482-.091c-.307 0-.746.095-.969.364-.296.36-.264 1.075-.039 1.45.265.443.648.882 1.172 1.344.528.467 1.078.902 1.61 1.325.129.101.257.204.384.305l-.456.937c-.576 1.192-1.12 2.318-1.7 3.438-.093.181-.336.384-.518.435-1.186.335-2.155 1.011-3.041 1.675-.465.347-.747.473-1.2.285-.236-.099-.44-.146-.622-.146-.82 0-.939.886-.978 1.178a5.29 5.29 0 0 0-.035.59 6.895 6.895 0 0 1-.01.276c-.004.099-.015.181-.038.256a2.624 2.624 0 0 1-.02-.145c-.09-.644-.175-1.253-.385-1.846-.326-.922.005-1.664.437-2.468.332-.62.683-1.23 1.035-1.84l.367-.64c.048-.083.102-.166.157-.252.098-.153.2-.314.285-.495.362-.79.016-1.642-.822-2.025-.753-.347-1.391-.099-1.799.686-2.276 4.383-3.992 8.541-5.247 12.71l-.117.384-.018-.048c-.823-2.072-1.648-4.144-2.458-6.221a23.573 23.573 0 0 1-.37-1.03c-.149-.435-.302-.887-.486-1.324-1.277-3.054-3.138-5.951-6.037-9.391-1.778-2.112-3.652-4.4-5.302-6.825-1.73-2.54-2.39-4.874-2.016-7.136.658-3.984 2.203-7.221 4.725-9.894 2.172-2.304 5.064-4.504 8.36-6.359 4.671-2.631 8.227-3.833 13.119-4.437a34.506 34.506 0 0 1 4.23-.24c2.056 0 4.091.146 5.811.29 3.544.297 6.184.884 8.555 1.902 4.201 1.803 6.84 5.408 6.723 9.183-.052 1.701.153 2.15.362 2.363.116.12.266.185.423.185.331 0 .576-.283.627-.488 1.217-4.989-1.163-9.981-5.923-12.423C46.51 1.85 43.776 1.053 41.02.834 38.855.662 36.006.455 33.16.382a62.75 62.75 0 0 0-1.484-.02c-1.556 0-2.839.08-4.034.247-3.103.437-4.945.99-7.67 1.99-3.388 1.242-6.463 2.95-10.279 5.709-3.504 2.535-6.059 5.473-7.812 8.984-2.293 4.596-2.208 9.084.252 13.336l.035.06c1.216 2.102 2.363 4.088 4.022 5.946a364.384 364.384 0 0 1 3.7 4.203c2.133 2.47 3.475 5.36 4.833 8.938a126.83 126.83 0 0 1 1.126 3.123c.236.673.472 1.346.716 2.017.12.327.244.651.371.976.434 1.125.845 2.186.979 3.349.057.496.416.986.747 1.253.328.264.916.39 1.322.276a22.909 22.909 0 0 0-.308 1.57c-.65 4.074.297 7.468 2.81 10.087 2.512 2.62 5.153 4.343 8.076 5.272 2.436.772 4.63 1.149 6.705 1.149 1.739 0 3.437-.274 5.046-.812 2.951-.99 4.803-2.853 5.66-5.7 1.173-3.896.987-7.959-.567-12.419-1.534-4.403-3.285-8.142-5.354-11.421.682.048 1.299.281 1.995.614 1.455.695 2.138 1.694 2.153 3.147.003.31.06.653.175 1.045.25.845.552 1.603 1.526 1.603.262 0 .566-.054.986-.173 1.226-.346 2.437-.785 3.61-1.21l.147-.055c1.105-.402 1.908-.256 2.604.485.166.175.328.351.49.529l.398.433c1.173 1.259 2.42 1.735 3.792 1.46.81-.162 1.588-.39 2.408-.63.318-.093.64-.188.967-.278.023.01.046.02.073.03.213.096.453.202.679.202a.58.58 0 0 0 .369-.122c.396-.312.709-.688 1.04-1.087l.174-.21c1.089.44 2.246.652 3.526.652 1.753 0 3.546-.409 5.307-.844.001.129 0 .24-.011.345l-.113 1.038c-.173 1.6-.352 3.251-.556 4.87-.13 1.022-.272 2.042-.415 3.062-.212 1.511-.431 3.076-.6 4.622-.374 3.438-.303 6.832-.19 10.295.025.735.333 1.278.973 1.71.234.157.487.242.732.242.504 0 .912-.35 1.042-.888.114-.474.135-.993.06-1.463-.463-2.862-.485-5.845-.066-9.122a517.86 517.86 0 0 1 1.023-7.44c.246-1.723.49-3.448.726-5.175.123-.918.15-1.853.164-2.657a2.491 2.491 0 0 0-.726-1.801z"
      fill="#340C0C" mask="url(#mask-2)" transform="rotate(-11 71.685 -355.003)"/>
    <path
      d="M35.449 60.204c.584-4.815 2.272-11.461 3.97-13.952-.355 5.25-2.082 9.918-3.97 13.952m11.614 4.247c-.182.696-.564 1.287-1.135 1.9.218-.765.598-1.4 1.135-1.9m8.945-1.425c-.823-.265-1.472-.134-2.145.425-.837.696-1.769 1.321-2.671 1.927l-.589.397a.978.978 0 0 1-.343.16c-.088.018-.198.02-.338-.111-.384-.351-.473-.533-.402-.815.08-.309.174-.716.204-1.129.063-.898-.135-1.569-.593-1.994-.457-.426-1.142-.577-2.037-.452a3.837 3.837 0 0 0-1.372.5c-1.958 1.148-2.497 3.054-2.917 5.073-.055.26-.011.51.028.73.014.076.027.152.036.227.023.219.048.435.07.633-.759.604-1.501.97-2.265 1.118-1 .194-2.02.009-3.122-.569-.557-.291-1.152-.448-1.781-.615-.205-.055-.411-.11-.62-.17-.252-1.1-.13-2.04.385-3.018 1.153-2.188 2.144-4.495 3.103-6.728l.19-.442c.462-1.075.766-2.217 1.036-3.224.275-1.039.538-2.186.817-3.61l.14-.712c.336-1.685.68-3.425.93-5.156.17-1.168-.29-1.935-1.45-2.413-.99-.408-1.795-.202-2.607.68-.271.297-.543.623-.696 1-.208.508-.428 1.017-.645 1.523-.592 1.382-1.207 2.81-1.612 4.283-.586 2.12-.993 4.316-1.387 6.44-.09.491-.182.982-.275 1.47-.52 2.743-.793 5.047-.858 7.25-.008.29-.143.655-.359.978-.442.662-.94 1.31-1.418 1.939l-.4.528c-2.963 3.911-6.637 7.46-10.923 10.544-2.662 1.918-5.272 2.924-8.018 3.1-1.7.108-4.094-.1-5.828-1.702-1.306-1.206-1.983-2.985-2.016-5.287a24.14 24.14 0 0 1 .602-5.68c1.223-5.355 3.608-10.51 7.093-15.323 1.718-2.376 3.57-4.182 5.66-5.518a7.38 7.38 0 0 1 3.048-1.123c2.235-.29 3.41 1.273 3.738 2.7.346 1.517.264 2.807-.255 3.941-1.146 2.508-2.817 4.01-5.107 4.592l-.055.015c-.47.118-1.35.34-1.222 1.409.104.878.773 1.37 1.742 1.282a4.66 4.66 0 0 0 1.021-.219c2.363-.771 3.908-2.511 4.991-3.939 1.707-2.253 2.1-4.9 1.166-7.861-.583-1.848-1.858-3.17-3.69-3.832a6.56 6.56 0 0 0-3.518-.258c-.837.163-1.68.471-2.583.945-2.552 1.34-4.793 3.43-7.056 6.582-1.879 2.62-3.316 5.098-4.392 7.575-1.141 2.63-2.417 5.705-3.112 8.94-.408 1.903-.847 4.418-.609 6.977.321 3.439 1.999 5.882 4.986 7.258 1.898.877 4.036 1.144 6.535.822.378-.048.757-.108 1.13-.18 2.958-.575 5.692-1.875 8.359-3.973 4.28-3.368 7.745-6.832 10.592-10.591.08-.105.164-.209.254-.318.015.068.032.137.051.203.269.915 1.164 1.527 1.996 1.365.183-.035.355-.106.512-.211.47-.319.826-.178 1.346.055l.12.053c2.787 1.239 5.403 1.031 7.782-.608.247-.17.636-.29.954-.292 1.018-.007 1.811-.414 2.38-1.212.241-.336.474-.673.728-1.036l.115-.165c.833.467 1.653.614 2.493.451 1.126-.219 2.093-.966 3.03-1.687l.1-.078c.104.09.206.173.332.24.478.257.882.348 1.237.279.399-.078.9-.39 1.022-1.447.059-.52.086-1.05.115-1.567.033-.672-.28-1.149-.883-1.344M82.486 56.88c.053.516-.113 1.074-.487 1.641.078-.58.217-1.128.487-1.641zm4.989 3.551l-.29.057c-.136.026-.276.05-.413.074-.331.058-.664.116-.988.206-.49.135-.975.285-1.46.436-.39.121-.778.24-1.17.353a2.406 2.406 0 0 1-.326.077c.022-.023.046-.046.07-.068 1.36-1.258 2.002-2.87 1.965-4.93-.026-1.345-.983-2.432-2.38-2.703-.373-.07-.691-.08-.974-.025-.898.174-1.325.96-1.627 1.707-.064.158-.121.319-.178.48l-.075.208c-.571 1.586-.714 3.108-.422 4.527-1.83.991-3.602 1.504-4.863 1.41-.002-.228-.01-.457-.017-.686-.024-.748-.048-1.52.073-2.241.52-3.093 1.103-6.23 1.668-9.264.23-1.243.462-2.484.688-3.725l.05-.265c.077-.39.154-.793.166-1.21.023-.79-.678-1.457-1.597-1.517a1.471 1.471 0 0 0-.39.019c-.746.145-.867.874-.924 1.226-.066.4-.178.794-.298 1.21-.056.196-.112.395-.164.593l-.333 1.289c-.211.82-.421 1.642-.644 2.462.077-.777.148-1.55.207-2.328.062-.783.08-1.627.062-2.654-.016-.802-.453-1.425-1.233-1.756a1.525 1.525 0 0 0-.896-.114c-.49.095-.832.447-1.047.703-.112.131-.239.25-.365.368a5.88 5.88 0 0 0-.384.386c-2.81 3.177-5.356 6.767-7.587 10.7l.131-.992-.362.88c.252-1.81.745-3.591 1.227-5.326l.121-.431c.126-.446.255-.904.288-1.384a1.127 1.127 0 0 0-.301-.847c-.29-.32-.758-.511-1.282-.529a1.843 1.843 0 0 0-.4.028c-.373.073-.83.325-.892 1.109-.04.499-.164 1.008-.278 1.44-1.087 4.086-1.601 7.852-1.57 11.51.01 1.089.107 2.36.744 3.54.437.814 1.059 1.093 2.012.908.062-.012.127-.027.193-.042l.382-.093-.061-.386a38.1 38.1 0 0 0-.194-1.105c-.154-.841-.301-1.636-.329-2.443-.023-.672.035-1.342.11-2.036.191.154.399.283.596.395l.057.396c.059.39.114.755.158 1.118.174 1.487.816 2.807 1.906 3.923.375.383.855.714 1.389.959.274.125.564.164.834.11.633-.123 1.027-.685.96-1.369-.11-1.114-.266-2.424-.57-3.693-.315-1.32-1.185-2.32-2.515-2.89-.232-.098-.46-.21-.71-.335l-.011-.005.03-.066c.133-.283.251-.54.388-.785.248-.441.503-.881.76-1.318.184-.316.37-.63.551-.947 1.75-3.058 3.295-5.257 5.01-7.131.062-.07.123-.14.183-.212a5.17 5.17 0 0 1 .185-.212c-.205 2.375-.41 4.748-.633 7.12-.02.208-.091.42-.187.55-1.144 1.563-1.448 3.346-.93 5.449.113.466.09.993.049 1.494-.034.422-.111.838-.192 1.28-.04.23-.083.457-.118.688-.142.92.552 1.862 1.484 2.011.163.027.318.027.461-.001.79-.154.984-1.071 1.048-1.375l.045-.228c.284.164.481.42.679.752.42.71 1.068 1.074 1.689.954.235-.046.456-.164.637-.343.309-.303.659-.374 1.1-.465.097-.02.196-.04.293-.064.8-.186 1.583-.46 2.339-.727l.08-.027c.62-.218 1.234-.455 1.854-.696l.628-.241c.098.069.19.135.28.208.852.707 1.828.978 2.815.786a3.88 3.88 0 0 0 .991-.344c.955-.476 1.834-1.067 2.685-1.64.626-.422.781-1.032.413-1.631l-.154-.254z"
      fill="#340C0C"/>
  </g>
</svg>
